<?xml version="1.0" encoding="utf-8"?>
<!-- Generator: Adobe Illustrator 18.0.0, SVG Export Plug-In . SVG Version: 6.00 Build 0)  -->
<!DOCTYPE svg PUBLIC "-//W3C//DTD SVG 1.1//EN" "http://www.w3.org/Graphics/SVG/1.1/DTD/svg11.dtd">
<svg version="1.1" id="Layer_1" xmlns="http://www.w3.org/2000/svg" xmlns:xlink="http://www.w3.org/1999/xlink" x="0px" y="0px"
	 viewBox="0 0 600 600" enable-background="new 0 0 600 600" xml:space="preserve">
<rect display="none" fill="#020202" stroke="#000000" stroke-width="1.1344" stroke-miterlimit="10" width="600" height="600"/>
<polygon display="none" fill="#FFFFFF" points="0,0 0,600 600,300 "/>
<g>
	<g>
		<path fill="#FFFFFF" d="M449.2,197.8h-99.8V44.5c0-14-11.2-25.5-25-25.5h-49.9c-13.7,0-25,11.5-25,25.5v153.3h-99.8l149.7,204.4
			L449.2,197.8z M561.6,274.5c-20.7,0-37.4,17.2-37.4,38.3v191.6H74.9V312.8c0-21.2-16.8-38.3-37.4-38.3C16.8,274.5,0,291.6,0,312.8
			v229.9C0,563.8,16.8,581,37.4,581h524.1c20.7,0,37.4-17.2,37.4-38.3V312.8C599,291.6,582.2,274.5,561.6,274.5z"/>
	</g>
</g>
</svg>
